<svg xmlns="http://www.w3.org/2000/svg" viewBox="0 0 64 64">
  <rect width="64" height="64" rx="14" fill="#ef5a23"/>
  <!-- シューズのシルエット（簡略） -->
  <path d="M10 40 C14 32 20 28 26 28 C30 28 32 31 36 33 C42 36 50 37 54 40 L54 44 C54 45.5 52.5 47 51 47 L13 47 C11.5 47 10 45.5 10 44 Z" fill="#fff"/>
  <path d="M10 44 L54 44 L54 45 C54 46.5 52.5 48 51 48 L13 48 C11.5 48 10 46.5 10 45 Z" fill="#16181d"/>
  <path d="M28 31 L31 35 M33 32.5 L36 36" stroke="#ef5a23" stroke-width="1.6" stroke-linecap="round"/>
</svg>
